<svg xmlns="http://www.w3.org/2000/svg" version="1.1" xmlns:xlink="http://www.w3.org/1999/xlink" xmlns:svgjs="http://svgjs.com/svgjs" width="1000" height="1000"><rect width="1000" height="1000" rx="200" ry="200" fill="#ffffff"></rect><g transform="matrix(4.968944099378882,0,0,4.968944099378882,152.78909642651956,101.76617891299804)"><svg xmlns="http://www.w3.org/2000/svg" version="1.1" xmlns:xlink="http://www.w3.org/1999/xlink" xmlns:svgjs="http://svgjs.com/svgjs" width="140" height="161"><svg width="140" height="161" viewBox="0 0 140 161" fill="none" xmlns="http://www.w3.org/2000/svg">
<path fill-rule="evenodd" clip-rule="evenodd" d="M46.22 151.5C45.98 151.33 45.8301 151.05 45.8301 150.73C45.8301 150.2 46.2601 149.78 46.7801 149.78C46.8801 149.78 46.9701 149.79 47.0601 149.82C49.7601 150.56 58.3801 153.26 68.4001 153.26C79.8401 153.26 93.6701 146.95 94.9601 146.06C96.2501 145.17 96.95 144.77 95.85 143.67C94.75 142.57 93.36 141.18 93.17 141.03C92.98 140.88 96.6001 139.59 99.5301 143.32C102.46 147.05 99.2301 151.77 98.7801 152.02C98.3301 152.27 97.9301 149.68 97.8901 148.94C97.8501 148.2 97.6901 147.3 96.7501 148.29C94.7301 150.4 84.2501 160.11 71.4001 160.11C59.5301 160.11 47.4401 152.13 46.5101 151.67C46.4201 151.62 46.32 151.56 46.22 151.5Z" fill="#3A3A3A"></path>
<path d="M69.85 133.64C67.28 133.64 61.1201 131.5 61.1201 131.5C59.5001 131.11 58.29 129.66 58.29 127.92C58.29 127.65 58.3201 127.38 58.3801 127.12C58.3801 127.12 58.3801 127.17 58.3801 127.19C58.3801 127.38 58.53 127.53 58.72 127.53C58.72 127.53 63.12 129.17 69.85 129.38C76.59 129.17 80.98 127.53 80.98 127.53C81.17 127.53 81.3201 127.38 81.3201 127.19C81.3201 127.17 81.3201 127.14 81.3201 127.12C81.3801 127.38 81.41 127.64 81.41 127.92C81.41 129.66 80.2001 131.12 78.5801 131.5C78.5801 131.5 72.42 133.64 69.85 133.64Z" fill="#3A3A3A"></path>
<path d="M135.52 83.04C135.26 82.78 134.99 82.55 134.72 82.32V39.77C134.72 19.6 119.87 2.9 100.51 0C100.47 0 100.43 0 100.39 0C100.03 0 99.74 0.29 99.74 0.65C99.74 0.81 99.8 0.95 99.89 1.06C101.43 2.65 102.38 4.82 102.38 7.21C102.38 10.62 100.45 13.59 97.61 15.06C89.49 19.37 64.49 21.25 44.59 21.25C35.36 21.4 27.77 28.27 26.48 37.18C26.42 37.18 26.35 37.18 26.29 37.18C14.52 37.18 4.98999 46.72 4.98999 58.48V82.31C4.71999 82.54 4.45 82.77 4.19 83.03C1.37 85.84 0 89.79 0 95.09C0 111.57 13.41 124.98 29.89 124.98C46.37 124.98 59.19 112.15 59.75 96.16L61.84 94.9C61.84 94.9 64.91 93.08 69.84 93.08C74.77 93.08 77.81 94.87 77.81 94.87L79.94 96.22C80.54 112.17 93.7 124.97 109.8 124.97C125.9 124.97 139.69 111.56 139.69 95.08C139.69 89.78 138.32 85.83 135.5 83.02L135.52 83.04ZM29.9 118.99C16.73 118.99 6.01001 108.27 6.01001 95.1C6.01001 91.47 6.8 88.92 8.44 87.29C11.62 84.11 18.37 83.91 26.31 83.91C26.89 83.91 27.48 83.91 28.07 83.91H29.9H31.73C40.43 83.89 47.95 83.88 51.36 87.29C52.99 88.92 53.79 91.48 53.79 95.1C53.79 108.27 43.07 118.99 29.9 118.99ZM69.86 85.09C64.24 85.09 60.27 86.73 58.54 87.61C57.85 85.84 56.88 84.32 55.6 83.04C50.42 77.87 41.76 77.89 31.72 77.91H29.9H28.08C23.6 77.91 19.4 77.9 15.65 78.35V74.19C15.65 73.84 15.92 73.56 16.27 73.54C25.35 72.71 32.46 65.07 32.46 55.77C32.46 53.37 31.98 51.07 31.12 48.98C31.08 48.9 31.06 48.81 31.06 48.71C31.06 48.35 31.35 48.06 31.71 48.06C31.84 48.06 31.97 48.1 32.07 48.17C43.15 55.43 57.53 59.81 73.25 59.81C88.97 59.81 104.41 55.1 115.64 47.36C120.87 47.36 125.11 51.6 125.11 56.83V78.5C121.11 77.9 116.54 77.91 111.63 77.92H109.81H107.99C97.94 77.91 89.28 77.89 84.11 83.05C82.83 84.33 81.86 85.86 81.17 87.62C79.44 86.74 75.48 85.1 69.85 85.1L69.86 85.09ZM109.83 118.99C96.66 118.99 85.94 108.27 85.94 95.1C85.94 91.47 86.73 88.92 88.37 87.29C91.55 84.11 98.3 83.91 106.24 83.91C106.82 83.91 107.41 83.91 108 83.91H109.83H111.66C120.37 83.89 127.88 83.88 131.29 87.29C132.92 88.92 133.72 91.48 133.72 95.1C133.72 108.27 123 118.99 109.83 118.99Z" fill="#3A3A3A"></path>
<path d="M76.2999 82.89H72.4599C72.1285 82.89 71.8599 83.1586 71.8599 83.49V95.81C71.8599 96.1414 72.1285 96.41 72.4599 96.41H76.2999C76.6312 96.41 76.8999 96.1414 76.8999 95.81V83.49C76.8999 83.1586 76.6312 82.89 76.2999 82.89Z" fill="#FFC200"></path>
<path d="M67.0699 85.09H63.2299C62.8985 85.09 62.6299 85.3586 62.6299 85.69V94.29C62.6299 94.6214 62.8985 94.89 63.2299 94.89H67.0699C67.4013 94.89 67.6699 94.6214 67.6699 94.29V85.69C67.6699 85.3586 67.4013 85.09 67.0699 85.09Z" fill="#FFC200"></path>
<mask id="mask0_105_423" style="mask-type:luminance" maskUnits="userSpaceOnUse" x="71" y="82" width="6" height="15">
<path d="M76.2999 82.89H72.4599C72.1285 82.89 71.8599 83.1586 71.8599 83.49V95.81C71.8599 96.1414 72.1285 96.41 72.4599 96.41H76.2999C76.6312 96.41 76.8999 96.1414 76.8999 95.81V83.49C76.8999 83.1586 76.6312 82.89 76.2999 82.89Z" fill="white"></path>
</mask>
<g mask="url(#mask0_105_423)">
<path opacity="0.3" d="M63.2199 83.59L72.75 80.99C73.32 80.83 73.91 81.21 74 81.8L76.5999 97.87C76.6999 98.48 76.2299 99.03 75.6099 99.03H67.7899C67.3499 99.03 66.97 98.75 66.84 98.33L62.53 84.86C62.36 84.32 62.6699 83.74 63.2199 83.59Z" fill="black"></path>
</g>
<mask id="mask1_105_423" style="mask-type:luminance" maskUnits="userSpaceOnUse" x="62" y="85" width="6" height="10">
<path d="M67.0699 85.09H63.2299C62.8985 85.09 62.6299 85.3586 62.6299 85.69V94.29C62.6299 94.6214 62.8985 94.89 63.2299 94.89H67.0699C67.4013 94.89 67.6699 94.6214 67.6699 94.29V85.69C67.6699 85.3586 67.4013 85.09 67.0699 85.09Z" fill="white"></path>
</mask>
<g mask="url(#mask1_105_423)">
<path opacity="0.4" d="M72.8899 82.27C72.7899 81.68 72.2099 81.31 71.6399 81.46L62.1099 84.06C61.5599 84.21 61.2499 84.79 61.4199 85.33L65.7299 98.8C65.8599 99.22 66.2499 99.5 66.6799 99.5H74.4999C75.1199 99.5 75.5899 98.95 75.4899 98.34L72.8899 82.27Z" fill="black"></path>
</g>
<path d="M72.9699 80.82C72.8699 80.23 72.2899 79.86 71.7199 80.01L62.19 82.61C61.64 82.76 61.33 83.34 61.5 83.88L65.81 97.35C65.94 97.77 66.33 98.05 66.76 98.05H74.58C75.2 98.05 75.67 97.5 75.57 96.89L72.9699 80.82Z" fill="#FFC200"></path>
<mask id="mask2_105_423" style="mask-type:luminance" maskUnits="userSpaceOnUse" x="61" y="79" width="15" height="20">
<path d="M72.9699 80.82C72.8699 80.23 72.2899 79.86 71.7199 80.01L62.19 82.61C61.64 82.76 61.33 83.34 61.5 83.88L65.81 97.35C65.94 97.77 66.33 98.05 66.76 98.05H74.58C75.2 98.05 75.67 97.5 75.57 96.89L72.9699 80.82Z" fill="white"></path>
</mask>
<g mask="url(#mask2_105_423)">
<path opacity="0.32" d="M72.84 91.14C72.78 90.79 72.4399 90.57 72.0999 90.66L66.3199 92.24C65.9899 92.33 65.8099 92.67 65.9099 93L68.5199 101.15C68.5999 101.4 68.83 101.56 69.09 101.56H73.8299C74.1999 101.56 74.4799 101.23 74.4199 100.87L72.8499 91.14H72.84Z" fill="white"></path>
</g>
</svg></svg></g></svg>