<svg width="134" height="40" viewBox="0 0 134 40" fill="none" xmlns="http://www.w3.org/2000/svg">
  <path
    d="M63.3177 19.6043H65.9829V35.2545H63.091L54.1456 23.8385V35.2545H51.4804V19.6043H54.1456L63.3177 31.2906V19.6043Z"
    fill="#3A3A3A" />
  <path
    d="M81.1855 30.3949H71.7669C71.826 31.2613 72.227 31.9583 72.9631 32.4892C73.6992 33.0201 74.5438 33.2839 75.4936 33.2839C76.9987 33.2839 78.1424 32.8149 78.9278 31.8736L80.3738 33.4403C79.079 34.7692 77.3931 35.4336 75.3128 35.4336C73.6269 35.4336 72.1908 34.8766 71.011 33.766C69.828 32.6553 69.2364 31.1603 69.2364 29.2875C69.2364 27.4147 69.8378 25.9262 71.0439 24.8221C72.25 23.7179 73.6664 23.1642 75.303 23.1642C76.9396 23.1642 78.3264 23.6528 79.47 24.6299C80.6137 25.607 81.1855 26.9555 81.1855 28.6719V30.3949ZM71.7669 28.4244H78.655C78.655 27.4245 78.3395 26.6558 77.7053 26.1184C77.0743 25.581 76.2922 25.3139 75.3687 25.3139C74.4452 25.3139 73.6105 25.594 72.8711 26.1542C72.1317 26.7144 71.7636 27.4701 71.7636 28.4277L71.7669 28.4244Z"
    fill="#3A3A3A" />
  <path
    d="M90.2656 25.695C89.0168 25.695 88.0736 26.0989 87.4426 26.9033C86.8117 27.7078 86.4929 28.7924 86.4929 30.1506V35.2545H83.9624V23.3434H86.4929V25.7373C86.9004 24.9915 87.4525 24.3791 88.1525 23.9003C88.8525 23.4215 89.5952 23.1773 90.3773 23.161L90.4003 25.6917H90.2656V25.695Z"
    fill="#3A3A3A" />
  <path
    d="M93.8576 33.7334C92.7271 32.6 92.1618 31.1082 92.1618 29.2549C92.1618 27.4017 92.7402 25.9262 93.9003 24.8221C95.0604 23.7179 96.4406 23.1642 98.0444 23.1642C99.6481 23.1642 100.94 23.8352 101.919 25.1804V18.6434H104.449V35.2545H101.919V33.4631C100.986 34.7757 99.6218 35.4336 97.8307 35.4336C96.3092 35.4336 94.9848 34.8669 93.8543 33.7334H93.8576ZM94.6923 29.3559C94.6923 30.4991 95.0604 31.4274 95.7998 32.144C96.5359 32.8605 97.4035 33.2188 98.396 33.2188C99.3885 33.2188 100.233 32.8573 100.926 32.1342C101.62 31.4111 101.965 30.4796 101.965 29.3461C101.965 28.2127 101.62 27.2649 100.926 26.5027C100.233 25.7406 99.3819 25.3595 98.373 25.3595C97.3641 25.3595 96.4965 25.7406 95.7768 26.5027C95.0538 27.2649 94.6923 28.2159 94.6923 29.3559Z"
    fill="#3A3A3A" />
  <path
    d="M108.271 20.9722C107.956 20.6596 107.798 20.285 107.798 19.8518C107.798 19.4186 107.956 19.0473 108.271 18.7314C108.587 18.4187 108.965 18.2624 109.402 18.2624C109.839 18.2624 110.214 18.4187 110.532 18.7314C110.848 19.0441 111.006 19.4186 111.006 19.8518C111.006 20.285 110.848 20.6563 110.532 20.9722C110.217 21.2849 109.839 21.4413 109.402 21.4413C108.965 21.4413 108.59 21.2849 108.271 20.9722ZM110.644 35.2545H108.114V23.3434H110.644V35.2545Z"
    fill="#3A3A3A" />
  <path
    d="M117.417 22.3597V23.3434H120.579V25.3595H117.417V35.2545H114.887V25.3595H113.372V23.3434H114.887V22.4249C114.887 21.1709 115.268 20.1743 116.027 19.4349C116.786 18.6955 117.706 18.3275 118.784 18.3275C119.862 18.3275 120.845 18.7216 121.732 19.5131L120.694 21.2817C120.197 20.7605 119.678 20.4967 119.136 20.4967C118.594 20.4967 118.173 20.6661 117.871 21.0015C117.568 21.337 117.417 21.7898 117.417 22.3565V22.3597Z"
    fill="#3A3A3A" />
  <path
    d="M124.532 40C123.431 40 122.439 39.6059 121.551 38.8144L122.705 36.7755C123.231 37.2673 123.776 37.5149 124.342 37.5149C124.907 37.5149 125.367 37.3129 125.718 36.909C126.073 36.5052 126.251 36.0655 126.251 35.5867C126.251 35.3782 124.631 31.2971 121.394 23.3401H124.105L127.697 32.1147L131.289 23.3401H134L128.173 37.4888C127.828 38.264 127.329 38.8763 126.681 39.3225C126.034 39.772 125.318 39.9935 124.535 39.9935L124.532 40Z"
    fill="#3A3A3A" />
  <path fill-rule="evenodd" clip-rule="evenodd"
    d="M11.3806 36.9807C11.3214 36.9384 11.2852 36.87 11.2852 36.7918C11.2852 36.6648 11.3904 36.5605 11.5186 36.5605C11.5416 36.5605 11.5679 36.5638 11.5876 36.5703C12.2514 36.7527 14.3744 37.4106 16.8424 37.4106C19.6588 37.4106 23.0667 35.87 23.3822 35.6518C23.6977 35.4336 23.8719 35.3359 23.6024 35.0688C23.3329 34.8017 22.9911 34.463 22.9418 34.4272C22.8925 34.3913 23.7864 34.0754 24.5094 34.9841C25.2324 35.8928 24.4371 37.0458 24.3254 37.1077C24.2136 37.1696 24.1183 36.5377 24.1052 36.3553C24.0921 36.1729 24.0559 35.9547 23.8226 36.199C23.3231 36.7136 20.7466 39.0848 17.5786 39.0848C14.6537 39.0848 11.6763 37.137 11.4496 37.023C11.4266 37.0133 11.4036 36.997 11.3773 36.9807"
    fill="#3A3A3A" />
  <path
    d="M17.2006 32.6195C16.5664 32.6195 15.0514 32.0984 15.0514 32.0984C14.6504 32.0039 14.3547 31.6489 14.3547 31.2222C14.3547 31.1571 14.3612 31.0919 14.3744 31.0268C14.3744 31.0268 14.3744 31.0398 14.3744 31.0431C14.3744 31.0887 14.4138 31.1278 14.4598 31.1278C14.4598 31.1278 15.5443 31.5284 17.2006 31.5805C18.8602 31.5284 19.9414 31.1278 19.9414 31.1278C19.9874 31.1278 20.0269 31.0887 20.0269 31.0431C20.0269 31.0366 20.0269 31.03 20.0269 31.0268C20.04 31.0887 20.0466 31.1538 20.0466 31.2222C20.0466 31.6456 19.7508 32.0039 19.3499 32.0984C19.3499 32.0984 17.8316 32.6195 17.2006 32.6195Z"
    fill="#3A3A3A" />
  <path
    d="M33.3726 20.2687C33.3102 20.2068 33.2445 20.1482 33.1754 20.0928V9.70931C33.1754 4.78463 29.521 0.71004 24.7526 0C24.7427 0 24.7329 0 24.723 0C24.6343 0 24.562 0.0716554 24.562 0.159596C24.562 0.198681 24.5751 0.234509 24.5981 0.260565C24.9793 0.648156 25.2127 1.17906 25.2127 1.76207C25.2127 2.59588 24.7362 3.31895 24.0395 3.67722C22.0381 4.72926 15.8828 5.1885 10.9829 5.1885C8.70876 5.22759 6.83884 6.90172 6.52335 9.07744C6.50692 9.07744 6.49049 9.07744 6.47734 9.07744C3.57881 9.07744 1.22909 11.4062 1.22909 14.279V20.0961C1.16336 20.1515 1.09435 20.2101 1.03191 20.272C0.338491 20.9592 0 21.92 0 23.2163C0 27.2388 3.30276 30.5122 7.36137 30.5122C11.42 30.5122 14.5781 27.3789 14.7162 23.4769L15.2288 23.1707C15.2288 23.1707 15.9847 22.7278 17.2006 22.7278C18.4166 22.7278 19.1626 23.1642 19.1626 23.1642L19.6884 23.4965C19.8363 27.3919 23.0799 30.5154 27.0432 30.5154C31.0065 30.5154 34.4045 27.2421 34.4045 23.2196C34.4045 21.9266 34.066 20.9625 33.3726 20.2752V20.2687ZM7.35808 29.0432C4.11448 29.0432 1.47227 26.4278 1.47227 23.2098C1.47227 22.3239 1.66945 21.7018 2.07038 21.3045C2.85582 20.5293 4.51541 20.4804 6.47077 20.4804C6.61208 20.4804 6.75997 20.4804 6.90457 20.4804H7.35479H7.80502C9.9477 20.4772 11.7979 20.4739 12.6392 21.3045C13.0401 21.7018 13.2373 22.3272 13.2373 23.2098C13.2373 26.4246 10.5984 29.0432 7.35151 29.0432H7.35808ZM17.1973 20.7703C15.8138 20.7703 14.8378 21.1709 14.4105 21.3859C14.2396 20.9559 14.003 20.5814 13.6875 20.2687C12.4124 19.0082 10.2796 19.0115 7.80502 19.0147H7.35808H6.91114C5.80693 19.0147 4.77174 19.0147 3.84829 19.1222V18.106C3.84829 18.0213 3.91401 17.9529 3.99946 17.9464C6.23744 17.7445 7.98905 15.8782 7.98905 13.608C7.98905 13.0217 7.87075 12.4615 7.66042 11.9502C7.65056 11.9306 7.64728 11.9078 7.64728 11.885C7.64728 11.7971 7.71958 11.7254 7.80831 11.7254C7.84117 11.7254 7.87075 11.7352 7.89704 11.7515C10.6247 13.5233 14.1673 14.5916 18.0386 14.5916C21.9099 14.5916 25.7122 13.4419 28.4793 11.5528C29.7675 11.5528 30.8126 12.5886 30.8126 13.8653V19.1548C29.8267 19.0082 28.7028 19.0115 27.4934 19.0115H27.0464H26.5995C24.1249 19.0082 21.9921 19.0017 20.717 20.2654C20.4015 20.5781 20.1616 20.9494 19.994 21.3826C19.5701 21.1677 18.5907 20.767 17.2039 20.767L17.1973 20.7703ZM27.0399 29.0432C23.7963 29.0432 21.1541 26.4278 21.1541 23.2098C21.1541 22.3239 21.3512 21.7018 21.7522 21.3045C22.5376 20.5293 24.1972 20.4804 26.1526 20.4804C26.2972 20.4804 26.4418 20.4804 26.5864 20.4804H27.0366H27.4868C29.6328 20.4772 31.4797 20.4739 32.321 21.3045C32.7219 21.7018 32.9191 22.3272 32.9191 23.2098C32.9191 26.4246 30.2802 29.0432 27.0333 29.0432H27.0399Z"
    fill="#3A3A3A" />
  <path
    d="M18.7879 20.2329H17.8415C17.7598 20.2329 17.6936 20.2985 17.6936 20.3794V23.3857C17.6936 23.4667 17.7598 23.5323 17.8415 23.5323H18.7879C18.8696 23.5323 18.9358 23.4667 18.9358 23.3857V20.3794C18.9358 20.2985 18.8696 20.2329 18.7879 20.2329Z"
    fill="#FFC200" />
  <path
    d="M16.5171 20.7703H15.5706C15.4889 20.7703 15.4227 20.8359 15.4227 20.9169V23.0177C15.4227 23.0986 15.4889 23.1642 15.5706 23.1642H16.5171C16.5988 23.1642 16.665 23.0986 16.665 23.0177V20.9169C16.665 20.8359 16.5988 20.7703 16.5171 20.7703Z"
    fill="#FFC200" />
  <mask id="mask0_0_407" style="mask-type:luminance" maskUnits="userSpaceOnUse" x="17" y="20"
    width="2"
    height="4">
    <path
      d="M18.7879 20.2329H17.8415C17.7598 20.2329 17.6936 20.2985 17.6936 20.3794V23.3857C17.6936 23.4667 17.7598 23.5323 17.8415 23.5323H18.7879C18.8696 23.5323 18.9358 23.4667 18.9358 23.3857V20.3794C18.9358 20.2985 18.8696 20.2329 18.7879 20.2329Z"
      fill="white" />
  </mask>
  <g mask="url(#mask0_0_407)">
    <path opacity="0.3"
      d="M15.5673 20.4055L17.9138 19.7704C18.0551 19.7313 18.1997 19.8225 18.2227 19.9658L18.8635 23.8873C18.8865 24.0371 18.7715 24.1707 18.6203 24.1707H16.6945C16.5861 24.1707 16.4908 24.1023 16.4579 24.0013L15.3964 20.7149C15.3537 20.5814 15.4326 20.4413 15.5673 20.4055Z"
      fill="black" />
  </g>
  <mask id="mask1_0_407" style="mask-type:luminance" maskUnits="userSpaceOnUse" x="15" y="20"
    width="2"
    height="4">
    <path
      d="M16.5171 20.7703H15.5706C15.4889 20.7703 15.4227 20.8359 15.4227 20.9169V23.0177C15.4227 23.0986 15.4889 23.1642 15.5706 23.1642H16.5171C16.5988 23.1642 16.665 23.0986 16.665 23.0177V20.9169C16.665 20.8359 16.5988 20.7703 16.5171 20.7703Z"
      fill="white" />
  </mask>
  <g mask="url(#mask1_0_407)">
    <path opacity="0.4"
      d="M17.9466 20.0831C17.9236 19.9397 17.779 19.8485 17.6377 19.8876L15.2913 20.5228C15.1565 20.5586 15.0777 20.7019 15.1204 20.8322L16.1819 24.1186C16.2147 24.2195 16.31 24.2879 16.4185 24.2879H18.3443C18.4954 24.2879 18.6137 24.1544 18.5874 24.0046L17.9466 20.0831Z"
      fill="black" />
  </g>
  <path
    d="M17.9663 19.728C17.9433 19.5847 17.7987 19.4935 17.6574 19.5326L15.311 20.1677C15.1762 20.2036 15.0974 20.3469 15.1401 20.4772L16.2016 23.7635C16.2344 23.8645 16.3297 23.9329 16.4382 23.9329H18.364C18.5151 23.9329 18.6335 23.7994 18.6072 23.6495L17.9663 19.728Z"
    fill="#FFC200" />
  <mask id="mask2_0_407" style="mask-type:luminance" maskUnits="userSpaceOnUse" x="15" y="19"
    width="4"
    height="5">
    <path
      d="M17.9663 19.728C17.9433 19.5847 17.7987 19.4935 17.6574 19.5326L15.311 20.1677C15.1762 20.2036 15.0974 20.3469 15.1401 20.4772L16.2016 23.7635C16.2344 23.8645 16.3297 23.9329 16.4382 23.9329H18.364C18.5151 23.9329 18.6335 23.7994 18.6072 23.6495L17.9663 19.728Z"
      fill="white" />
  </mask>
  <g mask="url(#mask2_0_407)">
    <path opacity="0.32"
      d="M17.9368 22.2457C17.9236 22.1611 17.8382 22.1057 17.7527 22.1285L16.3297 22.5128C16.2476 22.5356 16.2049 22.6171 16.2279 22.6985L16.872 24.6885C16.8917 24.7472 16.9476 24.7895 17.0133 24.7895H18.1799C18.272 24.7895 18.3377 24.7081 18.3245 24.6201L17.9368 22.2457Z"
      fill="white" />
  </g>
</svg>